#!OML:ASF E:\VariousWalksJay\Project 1\Capture day 1\Session 1\Actor2.ASF
:FULLY-SPECIFIED
:DEGREES
804
root 3.23667 17.3382 17.1274 -0.979758 32.8292 -6.05311
lowerback 1.28055 0.479048 12.3455
upperback 4.12601 0.589028 -1.16071
thorax 3.80089 0.751051 -8.16784
lowerneck -12.0164 0.669668 0.446188
upperneck 27.9378 -1.36593 8.72741
head 11.0836 0.576506 2.95308
rclavicle 3.74212e-014 2.06736e-014
rhumerus -74.7505 13.693 -127.306
rradius 64.7188
rwrist 7.4668
rhand -3.86698 8.56045
rfingers 7.12502
rthumb 21.8817 -20.2222
lclavicle 3.74212e-014 2.06736e-014
lhumerus -85.8161 -29.9836 146.107
lradius 61.1449
lwrist 2.41942
lhand -27.8346 -384.865
lfingers 7.12502
lthumb -1.22618 -354.888
rfemur -21.1627 0.780855 25.5906
rtibia 26.9401
rfoot -8.00087 -6.49318
rtoes -0.515941
lfemur -12.5504 5.63467 -11.9334
ltibia 76.0039
lfoot -11.4093 -6.77374
ltoes -22.4585
805
root 3.24986 17.3233 17.2253 -1.5639 33.1459 -6.39902
lowerback 1.63023 0.565426 12.3168
upperback 4.22821 0.750293 -1.22701
thorax 3.75002 0.834934 -8.22199
lowerneck -12.0041 0.46756 0.201316
upperneck 27.7336 -1.70156 9.17135
head 11.0274 0.447228 3.11007
rclavicle -1.55549e-014 -9.93923e-015
rhumerus -74.6538 13.9208 -127.345
rradius 64.6049
rwrist 7.35709
rhand -3.97803 8.44414
rfingers 7.12502
rthumb 21.7751 -20.351
lclavicle -1.55549e-014 -9.93923e-015
lhumerus -85.5644 -30.0122 146.036
lradius 60.9824
lwrist 2.31817
lhand -27.5215 -384.766
lfingers 7.12502
lthumb -0.923774 -354.788
rfemur -20.6303 0.446634 26.0928
rtibia 27.3352
rfoot -8.33201 -6.65626
rtoes -0.17464
lfemur -14.2832 5.87424 -11.3088
ltibia 79.2814
lfoot -12.3165 -6.72908
ltoes -22.7877
806
root 3.261 17.307 17.32 -2.18459 33.4557 -6.84147
lowerback 1.98993 0.643011 12.3685
upperback 4.3394 0.899977 -1.27296
thorax 3.70331 0.916336 -8.30153
lowerneck -11.9828 0.280536 -0.0135999
upperneck 27.517 -2.01369 9.59165
head 10.966 0.327726 3.25549
rclavicle -1.59028e-014 3.97569e-016
rhumerus -74.5522 14.1392 -127.376
rradius 64.5014
rwrist 7.28982
rhand -4.00331 8.37897
rfingers 7.12502
rthumb 21.7508 -20.419
lclavicle -1.59028e-014 3.97569e-016
lhumerus -85.2929 -30.0144 145.911
lradius 60.8386
lwrist 2.17923
lhand -27.1964 -384.685
lfingers 7.12502
lthumb -0.60978 -354.706
rfemur -20.1176 0.227493 26.6695
rtibia 27.6965
rfoot -8.63329 -6.94987
rtoes 0.134672
lfemur -16.0648 6.13215 -10.6119
ltibia 82.4049
lfoot -13.1748 -6.65206
ltoes -23.0221
807
root 3.27029 17.29 17.4121 -2.80606 33.7774 -7.32028
lowerback 2.34553 0.713997 12.4491
upperback 4.46115 1.04004 -1.30883
thorax 3.66967 0.995321 -8.38785
lowerneck -11.9585 0.104469 -0.207142
upperneck 27.2821 -2.30648 9.99046
head 10.898 0.215373 3.39088
rclavicle 5.55603e-014 -1.74931e-014
rhumerus -74.438 14.3311 -127.378
rradius 64.423
rwrist 7.25871
rhand -3.93407 8.37043
rfingers 7.12502
rthumb 21.8173 -20.4198
lclavicle 5.55603e-014 -1.74931e-014
lhumerus -85.0282 -30.0094 145.767
lradius 60.7202
lwrist 2.02288
lhand -26.8588 -384.623
lfingers 7.12502
lthumb -0.283751 -354.643
rfemur -19.6409 0.12394 27.2663
rtibia 28.0538
rfoot -8.92566 -7.38338
rtoes 0.428056
lfemur -17.888 6.37447 -9.91564
ltibia 85.3335
lfoot -13.97 -6.56016
ltoes -23.1908
808
root 3.27814 17.2724 17.5016 -3.38972 34.1324 -7.77307
lowerback 2.6907 0.763496 12.4971
upperback 4.58751 1.15032 -1.34856
thorax 3.63927 1.05899 -8.46099
lowerneck -11.9205 -0.0526864 -0.37906
upperneck 27.0313 -2.56934 10.3712
head 10.8213 0.115163 3.5187
rclavicle 1.35571e-013 -2.06736e-014
rhumerus -74.3388 14.5116 -127.376
rradius 64.3762
rwrist 7.24315
rhand -3.77905 8.40218
rfingers 7.12502
rthumb 21.9661 -20.3706
lclavicle 1.35571e-013 -2.06736e-014
lhumerus -84.7647 -29.9772 145.585
lradius 60.6383
lwrist 1.87537
lhand -26.5021 -384.583
lfingers 7.12502
lthumb 0.0607877 -354.603
rfemur -19.2212 0.0979306 27.8297
rtibia 28.4448
rfoot -9.22705 -7.93696
rtoes 0.603394
lfemur -19.7532 6.56334 -9.30053
ltibia 88.036
lfoot -14.6992 -6.45218
ltoes -23.3005
